<?xml version="1.0" encoding="UTF-8"?>
<svg width="203px" height="60px" viewBox="0 0 203 60" version="1.1" xmlns="http://www.w3.org/2000/svg" xmlns:xlink="http://www.w3.org/1999/xlink">
    <!-- Generator: Sketch 59.1 (86144) - https://sketch.com -->
    <title>logo</title>
    <desc>Created with Sketch.</desc>
    <defs>
        <polygon id="path-1" points="0.0715189189 0.118743243 10.6118243 0.118743243 10.6118243 7.08091892 0.0715189189 7.08091892"></polygon>
        <polygon id="path-3" points="0.228478378 0.118743243 16.3128649 0.118743243 16.3128649 5.44117027 0.228478378 5.44117027"></polygon>
        <polygon id="path-5" points="0.0469513514 0.169243243 49.3425946 0.169243243 49.3425946 20.7609595 0.0469513514 20.7609595"></polygon>
        <polygon id="path-7" points="0.0163783784 0.132391892 45.5561865 0.132391892 45.5561865 41.5688703 0.0163783784 41.5688703"></polygon>
    </defs>
    <g id="logo" stroke="none" stroke-width="1" fill="none" fill-rule="evenodd">
        <g id="Group" transform="translate(1.000000, 1.000000)">
            <polyline id="Fill-1" fill="#4D4E4C" points="39.3534216 56.9104973 39.3534216 50.0498676 43.1051622 50.0498676 43.1051622 50.6741568 40.0415865 50.6741568 40.0415865 53.1361 43.0058 53.1361 43.0058 53.7606622 40.0415865 53.7606622 40.0415865 56.2905757 43.1051622 56.2905757 43.1051622 56.9104973 39.3534216 56.9104973"></polyline>
            <path d="M50.4099189,56.9104973 L50.4099189,54.1226243 C50.4099189,53.8510162 50.3736135,53.6007 50.3012757,53.3716757 C50.2199297,53.1030703 50.0946351,52.8887865 49.9253919,52.7288243 C49.6177514,52.439473 49.2514216,52.2942514 48.8261297,52.2942514 C48.3975622,52.2942514 48.0295946,52.439473 47.7216811,52.7288243 C47.5557135,52.8857838 47.4320568,53.0937892 47.3504378,53.3533865 C47.2811027,53.5766784 47.2464351,53.8166216 47.2464351,54.0732162 L47.2464351,56.9104973 L46.5994892,56.9104973 L46.5994892,51.8416622 L47.2464351,51.8416622 L47.2464351,52.4891541 L47.2644514,52.4891541 C47.5993892,51.9702324 48.1199486,51.7106351 48.8261297,51.7106351 C49.5347676,51.7106351 50.0886297,51.9369297 50.4868973,52.3895189 C50.8671486,52.8240919 51.0571378,53.4017027 51.0571378,54.1226243 L51.0571378,56.9104973 L50.4099189,56.9104973" id="Fill-2" fill="#4D4E4C"></path>
            <polyline id="Fill-3" fill="#4D4E4C" points="55.8186054 52.4258243 55.8186054 56.9104973 55.1711135 56.9104973 55.1711135 52.4258243 54.1032432 52.4258243 54.1032432 51.8416622 55.1711135 51.8416622 55.1711135 50.0498676 55.8186054 50.0498676 55.8186054 51.8416622 57.0311514 51.8416622 57.0311514 52.4258243 55.8186054 52.4258243"></polyline>
            <path d="M64.417527,54.0276297 C64.3329054,53.5269973 64.1079757,53.1134432 63.7430108,52.7877865 C63.3750432,52.4588541 62.9391054,52.2942514 62.4351973,52.2942514 C61.9345649,52.2942514 61.4983541,52.4588541 61.1271108,52.7877865 C60.7621459,53.1134432 60.539127,53.5269973 60.4575081,54.0276297 L64.417527,54.0276297 Z M65.0737541,54.6115189 L60.4575081,54.6115189 C60.4815297,55.1094216 60.691173,55.5409919 61.0867108,55.9059568 C61.478973,56.2679189 61.9252838,56.449173 62.4261892,56.449173 C62.8244568,56.449173 63.1894216,56.3432595 63.5213568,56.1319784 C63.8653027,55.9119622 64.104973,55.6176973 64.2409135,55.2497297 L64.9290784,55.2497297 C64.7418189,55.7809351 64.4188919,56.2105946 63.9602973,56.539527 C63.5019757,56.8684595 62.9931541,57.0330622 62.4351973,57.0330622 C61.7052676,57.0330622 61.0804324,56.771827 60.5615108,56.2499027 C60.0485946,55.7339838 59.792273,55.1110595 59.792273,54.3808568 C59.792273,53.6539297 60.0485946,53.0277297 60.5615108,52.5028027 C61.0804324,51.9746 61.7019919,51.7106351 62.4261892,51.7106351 C63.1623973,51.7106351 63.7896892,51.9806054 64.3088838,52.5205459 C64.8245297,53.0544811 65.0827622,53.6899622 65.0827622,54.4261703 L65.0737541,54.6115189 L65.0737541,54.6115189 Z" id="Fill-4" fill="#4D4E4C"></path>
            <path d="M70.4909027,52.3982541 C69.5253973,52.4768703 69.0427811,52.9930622 69.0427811,53.9462838 L69.0427811,56.9104973 L68.3955622,56.9104973 L68.3955622,51.8416622 L69.0427811,51.8416622 L69.0427811,52.5751405 L69.0607973,52.5751405 C69.1937351,52.2702297 69.3850892,52.0502135 69.6356784,51.914273 C69.8406811,51.8056297 70.1256649,51.7376595 70.4909027,51.7106351 L70.4909027,52.3982541" id="Fill-5" fill="#4D4E4C"></path>
            <polyline id="Fill-6" fill="#4D4E4C" points="74.7501 52.4258243 74.7501 56.9104973 74.1028811 56.9104973 74.1028811 52.4258243 73.0347378 52.4258243 73.0347378 51.8416622 74.1028811 51.8416622 74.1028811 50.0498676 74.7501 50.0498676 74.7501 51.8416622 75.9629189 51.8416622 75.9629189 52.4258243 74.7501 52.4258243"></polyline>
            <path d="M82.9373784,52.9144459 C82.5418405,52.5011649 82.0592243,52.2942514 81.4889838,52.2942514 C80.8887162,52.2942514 80.3921784,52.4935216 79.9999162,52.8917892 C79.6076541,53.2900568 79.4116595,53.7893243 79.4116595,54.3898649 C79.4116595,54.9813973 79.6092919,55.4732946 80.0045568,55.8650108 C80.3998216,56.2542703 80.8947216,56.449173 81.4889838,56.449173 C82.0592243,56.449173 82.5418405,56.2452622 82.9373784,55.8379865 C83.3263649,55.4369892 83.5212676,54.9510973 83.5212676,54.3808568 C83.5212676,53.8106162 83.3263649,53.3217216 82.9373784,52.9144459 Z M83.4803216,56.9104973 L83.4803216,56.0192405 L83.4623054,56.0192405 C83.0157216,56.6948486 82.3578568,57.0330622 81.4889838,57.0330622 C80.7257514,57.0330622 80.0815351,56.7778324 79.5566081,56.2679189 C79.0286784,55.7582784 78.7647135,55.1230703 78.7647135,54.3625676 C78.7647135,53.6083432 79.0316811,52.9761378 79.5656162,52.4664973 C80.0935459,51.9623162 80.7347595,51.7106351 81.4889838,51.7106351 C82.3731432,51.7106351 83.0307351,52.0502135 83.4623054,52.7288243 L83.4803216,52.7288243 L83.4803216,51.8416622 L84.1319081,51.8416622 L84.1319081,56.9104973 L83.4803216,56.9104973 L83.4803216,56.9104973 Z" id="Fill-7" fill="#4D4E4C"></path>
            <path d="M87.6306027,56.9104973 L88.6306027,56.9104973 L88.6306027,51.8416622 L87.6306027,51.8416622 L87.6306027,56.9104973 Z M87.6306027,51.2217405 L88.6306027,51.2217405 L88.6306027,50.0498676 L87.6306027,50.0498676 L87.6306027,51.2217405 Z" id="Fill-8" fill="#4D4E4C"></path>
            <path d="M95.6183378,56.9104973 L95.6183378,54.1226243 C95.6183378,53.8510162 95.5823054,53.6007 95.5099676,53.3716757 C95.4283486,53.1030703 95.303327,52.8887865 95.1340838,52.7288243 C94.8264432,52.439473 94.4598405,52.2942514 94.0345486,52.2942514 C93.6059811,52.2942514 93.2380135,52.439473 92.9301,52.7288243 C92.7641324,52.8857838 92.6404757,53.0937892 92.5591297,53.3533865 C92.4895216,53.5766784 92.455127,53.8166216 92.455127,54.0732162 L92.455127,56.9104973 L91.8079081,56.9104973 L91.8079081,51.8416622 L92.455127,51.8416622 L92.455127,52.4891541 L92.4731432,52.4891541 C92.8080811,51.9702324 93.3283676,51.7106351 94.0345486,51.7106351 C94.7431865,51.7106351 95.2970486,51.9369297 95.6953162,52.3895189 C96.0755676,52.8240919 96.2655568,53.4017027 96.2655568,54.1226243 L96.2655568,56.9104973 L95.6183378,56.9104973" id="Fill-9" fill="#4D4E4C"></path>
            <path d="M106.616146,56.9104973 L106.616146,53.9735811 C106.616146,53.4816838 106.512143,53.0894216 106.304138,52.7967946 C106.062557,52.4618568 105.706327,52.2942514 105.235722,52.2942514 C104.765116,52.2942514 104.410797,52.4618568 104.172219,52.7967946 C103.961211,53.0894216 103.85557,53.4816838 103.85557,53.9735811 L103.85557,56.9104973 L103.208351,56.9104973 L103.208351,53.9735811 C103.208351,53.4816838 103.102711,53.0894216 102.891703,52.7967946 C102.653124,52.4618568 102.298805,52.2942514 101.827927,52.2942514 C101.354319,52.2942514 100.998362,52.4618568 100.759784,52.7967946 C100.549049,53.0894216 100.443135,53.4816838 100.443135,53.9735811 L100.443135,56.9104973 L99.7959162,56.9104973 L99.7959162,51.8416622 L100.443135,51.8416622 L100.443135,52.4258243 C100.74477,51.9492135 101.206641,51.7106351 101.827927,51.7106351 C102.600441,51.7106351 103.167678,52.034927 103.529368,52.6835108 C103.937189,52.034927 104.505792,51.7106351 105.235722,51.7106351 C105.869565,51.7106351 106.37047,51.9202784 106.738165,52.3395649 C107.091392,52.7378324 107.268005,53.257027 107.268005,53.8963297 L107.268005,56.9104973 L106.616146,56.9104973" id="Fill-10" fill="#4D4E4C"></path>
            <path d="M115.179035,54.0276297 C115.094414,53.5269973 114.869484,53.1134432 114.504792,52.7877865 C114.136824,52.4588541 113.700614,52.2942514 113.196705,52.2942514 C112.696073,52.2942514 112.259862,52.4588541 111.888619,52.7877865 C111.523927,53.1134432 111.300635,53.5269973 111.219016,54.0276297 L115.179035,54.0276297 Z M115.835262,54.6115189 L111.219016,54.6115189 C111.243038,55.1094216 111.452681,55.5409919 111.848219,55.9059568 C112.240481,56.2679189 112.686792,56.449173 113.187697,56.449173 C113.585965,56.449173 113.95093,56.3432595 114.282865,56.1319784 C114.626811,55.9119622 114.866754,55.6176973 115.002695,55.2497297 L115.690586,55.2497297 C115.5036,55.7809351 115.1804,56.2105946 114.721805,56.539527 C114.263484,56.8684595 113.754662,57.0330622 113.196705,57.0330622 C112.466776,57.0330622 111.842214,56.771827 111.323019,56.2499027 C110.810103,55.7339838 110.554054,55.1110595 110.554054,54.3808568 C110.554054,53.6539297 110.810103,53.0277297 111.323019,52.5028027 C111.842214,51.9746 112.4635,51.7106351 113.187697,51.7106351 C113.924178,51.7106351 114.551197,51.9806054 115.070665,52.5205459 C115.586038,53.0544811 115.844543,53.6899622 115.844543,54.4261703 L115.835262,54.6115189 L115.835262,54.6115189 Z" id="Fill-11" fill="#4D4E4C"></path>
            <path d="M122.968046,56.9104973 L122.968046,54.1226243 C122.968046,53.8510162 122.932014,53.6007 122.859403,53.3716757 C122.778057,53.1030703 122.652762,52.8887865 122.483519,52.7288243 C122.175878,52.439473 121.809276,52.2942514 121.384257,52.2942514 C120.955689,52.2942514 120.587722,52.439473 120.279808,52.7288243 C120.113568,52.8857838 119.989911,53.0937892 119.908565,53.3533865 C119.838957,53.5766784 119.804835,53.8166216 119.804835,54.0732162 L119.804835,56.9104973 L119.157343,56.9104973 L119.157343,51.8416622 L119.804835,51.8416622 L119.804835,52.4891541 L119.822578,52.4891541 C120.157516,51.9702324 120.678076,51.7106351 121.384257,51.7106351 C122.092895,51.7106351 122.646757,51.9369297 123.045024,52.3895189 C123.425003,52.8240919 123.615265,53.4017027 123.615265,54.1226243 L123.615265,56.9104973 L122.968046,56.9104973" id="Fill-12" fill="#4D4E4C"></path>
            <polyline id="Fill-13" fill="#4D4E4C" points="128.376459 52.4258243 128.376459 56.9104973 127.728968 56.9104973 127.728968 52.4258243 126.661097 52.4258243 126.661097 51.8416622 127.728968 51.8416622 127.728968 50.0498676 128.376459 50.0498676 128.376459 51.8416622 129.589005 51.8416622 129.589005 52.4258243 128.376459 52.4258243"></polyline>
            <polyline id="Fill-14" fill="#4D4E4C" points="137.541254 56.9104973 137.541254 50.0498676 141.293268 50.0498676 141.293268 50.6741568 138.229419 50.6741568 138.229419 53.1361 141.193632 53.1361 141.193632 53.7606622 138.229419 53.7606622 138.229419 56.2905757 141.293268 56.2905757 141.293268 56.9104973 137.541254 56.9104973"></polyline>
            <path d="M149.806203,55.4173351 C149.259984,56.4942135 148.419773,57.0330622 147.285297,57.0330622 C146.531073,57.0330622 145.889859,56.7794703 145.361657,56.2725595 C144.827722,55.7596432 144.561027,55.1288027 144.561027,54.3808568 C144.561027,53.6383703 144.829359,53.0067108 145.366297,52.4845135 C145.900505,51.9685946 146.540081,51.7106351 147.285297,51.7106351 C147.843254,51.7106351 148.3488,51.8572216 148.801389,52.1495757 C149.265716,52.4512108 149.600927,52.8587595 149.806203,53.3716757 L149.091286,53.3716757 C148.714038,52.6537568 148.118138,52.2942514 147.303314,52.2942514 C146.721062,52.2942514 146.227527,52.4935216 145.823527,52.8917892 C145.413249,53.2900568 145.207973,53.7805892 145.207973,54.3625676 C145.207973,54.9510973 145.410246,55.4457243 145.814519,55.8469946 C146.218792,56.2485378 146.715057,56.449173 147.303314,56.449173 C148.138884,56.449173 148.735057,56.1049541 149.091286,55.4173351 L149.806203,55.4173351" id="Fill-15" fill="#4D4E4C"></path>
            <path d="M156.966011,52.9054378 C156.573749,52.4978892 156.101505,52.2942514 155.549554,52.2942514 C154.982316,52.2942514 154.504341,52.5058054 154.114808,52.9280946 C153.734557,53.338373 153.544568,53.8283595 153.544568,54.3986 C153.544568,54.953827 153.739197,55.4337135 154.128457,55.8379865 C154.520719,56.2452622 154.994327,56.449173 155.549554,56.449173 C156.122524,56.449173 156.602138,56.2406216 156.988668,55.8243378 C157.362641,55.4173351 157.549627,54.9238 157.549627,54.3445514 C157.549627,53.7893243 157.35527,53.3097108 156.966011,52.9054378 Z M157.414232,56.2452622 C156.892035,56.7704622 156.267746,57.0330622 155.540546,57.0330622 C154.825357,57.0330622 154.2068,56.7731919 153.684876,56.2542703 C153.160222,55.7353486 152.897622,55.1200676 152.897622,54.4076081 C152.897622,53.671673 153.15367,53.0397405 153.666859,52.5115378 C154.182778,51.9776027 154.807341,51.7106351 155.540546,51.7106351 C156.261468,51.7106351 156.884392,51.9729622 157.409319,52.4978892 C157.934519,53.0230892 158.197119,53.6473784 158.197119,54.3718486 C158.197119,55.0990486 157.936157,55.7233378 157.414232,56.2452622 L157.414232,56.2452622 Z" id="Fill-16" fill="#4D4E4C"></path>
            <g id="Group-20" transform="translate(161.054054, 51.591892)">
                <mask id="mask-2" fill="white">
                    <use xlink:href="#path-1"></use>
                </mask>
                <g id="Clip-18"></g>
                <path d="M1.62828378,5.44117027 C1.17542162,5.44117027 0.802813514,5.29321892 0.510186486,4.99758919 C0.217559459,4.70168649 0.0715189189,4.32771351 0.0715189189,3.87485135 L0.0715189189,3.81616216 L0.718464865,3.81616216 C0.730475676,4.51005946 1.03347568,4.85728108 1.62828378,4.85728108 C2.25857838,4.85728108 2.57386216,4.55400811 2.57386216,3.94746216 C2.57386216,3.65183243 2.45184324,3.41652973 2.20725946,3.24155405 C2.1109,3.17194595 1.98396757,3.10424865 1.82700811,3.03791622 L1.39707568,2.87031081 C1.21636757,2.80097568 1.07169189,2.73901081 0.962775676,2.68468919 C0.811821622,2.60634595 0.686527027,2.52172432 0.586891892,2.43137027 C0.342854054,2.20807838 0.220289189,1.90617027 0.220289189,1.52619189 C0.220289189,1.11291081 0.357594595,0.77497027 0.632478378,0.51237027 C0.903813514,0.24977027 1.24803243,0.118743243 1.66404324,0.118743243 C2.0533027,0.118743243 2.3805973,0.251681081 2.6462,0.517010811 C2.9118027,0.782613514 3.04474054,1.10963514 3.04474054,1.49889459 L2.39724865,1.49889459 C2.36421892,0.967962162 2.1109,0.702359459 1.63701892,0.702359459 C1.12437568,0.702359459 0.867781081,0.955951351 0.867781081,1.46258919 C0.867781081,1.71618108 0.990072973,1.91818108 1.23411081,2.06913514 C1.32774054,2.12673243 1.45467297,2.18542162 1.61463514,2.24574865 L1.71863784,2.28642162 C1.74293243,2.29542973 1.77869189,2.30907838 1.82700811,2.32736757 L2.04429459,2.40871351 C2.21927027,2.47804865 2.36421892,2.54438108 2.47886757,2.60798378 C2.62982162,2.68932973 2.75511622,2.78132162 2.85475135,2.88395946 C3.09878919,3.13427568 3.22108108,3.47085135 3.22108108,3.89314054 C3.22108108,4.92497838 2.68987568,5.44117027 1.62828378,5.44117027" id="Fill-17" fill="#4D4E4C" mask="url(#mask-2)"></path>
                <polyline id="Fill-19" fill="#4D4E4C" mask="url(#mask-2)" points="7.67463514 7.0972973 7.00011892 7.0972973 7.87827297 5.15127297 5.90522432 0.24977027 6.59284324 0.24977027 8.2042027 4.29140811 9.92857297 0.24977027 10.6118243 0.24977027 7.67463514 7.0972973"></polyline>
            </g>
            <path d="M175.893138,57.0330622 C175.440549,57.0330622 175.067941,56.8851108 174.775041,56.5894811 C174.482414,56.2935784 174.336373,55.9196054 174.336373,55.4667432 L174.336373,55.4080541 L174.983319,55.4080541 C174.99533,56.1019514 175.29833,56.449173 175.893138,56.449173 C176.523705,56.449173 176.838716,56.1459 176.838716,55.5393541 C176.838716,55.2437243 176.71697,55.0084216 176.472114,54.8334459 C176.376027,54.7638378 176.249095,54.6961405 176.092135,54.6298081 L175.66193,54.4622027 C175.481222,54.3928676 175.336546,54.3309027 175.227903,54.2765811 C175.076949,54.1982378 174.951654,54.1136162 174.852019,54.0232622 C174.607708,53.7999703 174.485416,53.4980622 174.485416,53.1180838 C174.485416,52.7048027 174.622722,52.3668622 174.897605,52.1042622 C175.168941,51.8416622 175.513159,51.7106351 175.92917,51.7106351 C176.31843,51.7106351 176.645724,51.843573 176.911327,52.1089027 C177.176657,52.3745054 177.309868,52.701527 177.309868,53.0907865 L176.662376,53.0907865 C176.629073,52.5598541 176.376027,52.2942514 175.901873,52.2942514 C175.38923,52.2942514 175.132635,52.5478432 175.132635,53.0544811 C175.132635,53.308073 175.254927,53.510073 175.499238,53.661027 C175.592868,53.7186243 175.719527,53.7773135 175.879489,53.8376405 L175.983492,53.8783135 C176.007786,53.8873216 176.043819,53.9009703 176.092135,53.9192595 L176.309422,54.0006054 C176.484397,54.0699405 176.629073,54.136273 176.743722,54.1998757 C176.894676,54.2812216 177.01997,54.3732135 177.119605,54.4758514 C177.363916,54.7261676 177.485935,55.0627432 177.485935,55.4850324 C177.485935,56.5168703 176.955003,57.0330622 175.893138,57.0330622" id="Fill-21" fill="#4D4E4C"></path>
            <polyline id="Fill-22" fill="#4D4E4C" points="181.876432 52.4258243 181.876432 56.9104973 181.228941 56.9104973 181.228941 52.4258243 180.16107 52.4258243 180.16107 51.8416622 181.228941 51.8416622 181.228941 50.0498676 181.876432 50.0498676 181.876432 51.8416622 183.088978 51.8416622 183.088978 52.4258243 181.876432 52.4258243"></polyline>
            <g id="Group-26" transform="translate(185.621622, 51.591892)">
                <mask id="mask-4" fill="white">
                    <use xlink:href="#path-3"></use>
                </mask>
                <g id="Clip-24"></g>
                <path d="M4.85373243,2.43573784 C4.76911081,1.93510541 4.54418108,1.52155135 4.17921622,1.19589459 C3.81152162,0.866962162 3.37531081,0.702359459 2.87112973,0.702359459 C2.3704973,0.702359459 1.93455946,0.866962162 1.56331622,1.19589459 C1.19835135,1.52155135 0.975332432,1.93510541 0.893713514,2.43573784 L4.85373243,2.43573784 Z M5.50968649,3.01962703 L0.893713514,3.01962703 C0.917735135,3.51752973 1.12737838,3.9491 1.52291622,4.31406486 C1.91490541,4.67602703 2.36148919,4.85728108 2.86239459,4.85728108 C3.26066216,4.85728108 3.62562703,4.75136757 3.95756216,4.54008649 C4.30150811,4.32007027 4.54145135,4.02580541 4.67711892,3.65783784 L5.36528378,3.65783784 C5.1782973,4.18904324 4.8550973,4.6187027 4.3965027,4.94763514 C3.93818108,5.27656757 3.42935946,5.44117027 2.87112973,5.44117027 C2.14147297,5.44117027 1.51663784,5.17993514 0.997716216,4.65801081 C0.4848,4.14209189 0.228478378,3.51916757 0.228478378,2.78896486 C0.228478378,2.06203784 0.4848,1.43583784 0.997716216,0.910910811 C1.51663784,0.382708108 2.1381973,0.118743243 2.86239459,0.118743243 C3.59832973,0.118743243 4.22589459,0.388713514 4.74536216,0.928654054 C5.26073514,1.46258919 5.51924054,2.09807027 5.51924054,2.83427838 L5.50968649,3.01962703 L5.50968649,3.01962703 Z" id="Fill-23" fill="#4D4E4C" mask="url(#mask-4)"></path>
                <path d="M15.6612784,5.31860541 L15.6612784,2.38168919 C15.6612784,1.88979189 15.5570027,1.49752973 15.3489973,1.2049027 C15.1076892,0.869964865 14.7514595,0.702359459 14.2808541,0.702359459 C13.8102486,0.702359459 13.4559297,0.869964865 13.2173514,1.2049027 C13.0060703,1.49752973 12.9007027,1.88979189 12.9007027,2.38168919 L12.9007027,5.31860541 L12.2532108,5.31860541 L12.2532108,2.38168919 C12.2532108,1.88979189 12.1478432,1.49752973 11.9365622,1.2049027 C11.6982568,0.869964865 11.3436649,0.702359459 10.8730595,0.702359459 C10.3991784,0.702359459 10.0432216,0.869964865 9.80491622,1.2049027 C9.59390811,1.49752973 9.48826757,1.88979189 9.48826757,2.38168919 L9.48826757,5.31860541 L8.84104865,5.31860541 L8.84104865,0.24977027 L9.48826757,0.24977027 L9.48826757,0.833932432 C9.7899027,0.357321622 10.2515,0.118743243 10.8730595,0.118743243 C11.645573,0.118743243 12.2128108,0.443035135 12.5745,1.09161892 C12.9820486,0.443035135 13.5506514,0.118743243 14.2808541,0.118743243 C14.9146973,0.118743243 15.4153297,0.328386486 15.7832973,0.747672973 C16.1365243,1.14594054 16.3131378,1.66513514 16.3131378,2.30443784 L16.3131378,5.31860541 L15.6612784,5.31860541" id="Fill-25" fill="#4D4E4C" mask="url(#mask-4)"></path>
            </g>
            <polyline id="Fill-27" fill="#4D4E4C" points="176.330714 25.6632811 176.330714 30.2434946 166.899497 30.2434946 166.899497 46.2530865 162.3171 46.2530865 162.3171 47.0730973 167.715414 47.0730973 167.715414 31.057773 177.147176 31.057773 177.147176 25.6632811 176.330714 25.6632811"></polyline>
            <g id="Group-31" transform="translate(152.591892, 23.202703)">
                <mask id="mask-6" fill="white">
                    <use xlink:href="#path-5"></use>
                </mask>
                <g id="Clip-29"></g>
                <polygon id="Fill-28" fill="#4D4E4C" mask="url(#mask-6)" points="0.0469513514 7.85507027 7.90966486 7.85507027 7.90966486 7.04079189 0.0469513514 7.04079189"></polygon>
                <path d="M38.0155811,9.75851081 L35.0677459,4.17948919 L31.9604946,9.75851081 L38.0155811,9.75851081 Z M32.9139892,0.169243243 L37.5417,0.169243243 L49.3428676,20.7609595 L43.9620243,20.7609595 L40.0014595,13.2506541 L30.1326676,13.2506541 L26.0560892,20.7609595 L21.2774243,20.7609595 L32.9139892,0.169243243 L32.9139892,0.169243243 Z" id="Fill-30" fill="#008AC4" mask="url(#mask-6)"></path>
            </g>
            <path d="M56.1074108,32.9612135 L53.145927,27.3821919 L49.9889946,32.9612135 L56.1074108,32.9612135 Z M50.9916243,23.3719459 L55.6187892,23.3719459 L67.4210486,43.9636622 L62.0396595,43.9636622 L58.0921973,36.4533568 L48.1598027,36.4533568 L44.1323595,43.9636622 L39.3534216,43.9636622 L50.9916243,23.3719459 L50.9916243,23.3719459 Z" id="Fill-32" fill="#4D4E4C"></path>
            <path d="M84.9052405,32.9612135 C85.6286189,32.9612135 86.1448108,32.8438351 86.4502676,32.6068946 C86.7573622,32.3713189 86.910227,31.9886108 86.910227,31.4549486 L86.910227,29.4480514 C86.910227,28.9146622 86.7573622,28.5355027 86.4502676,28.3089351 C86.1448108,28.0823676 85.6286189,27.9701757 84.9052405,27.9701757 L74.2186216,27.9701757 L74.2186216,32.9612135 L84.9052405,32.9612135 Z M69.4399568,23.3719459 L87.0912081,23.3719459 C87.8757324,23.3719459 88.4869189,23.4123459 88.9294081,23.4931459 C89.3724432,23.5725811 89.789273,23.7300865 90.1809892,23.9621135 C90.7637865,24.2918649 91.1634189,24.7430892 91.3801595,25.3171514 C91.5941703,25.8898486 91.7047243,26.7535351 91.7047243,27.9101216 L91.7047243,32.8121703 C91.7047243,33.5139838 91.6760622,34.0550162 91.6214676,34.4309 C91.566327,34.8084216 91.4574108,35.1736595 91.2958108,35.5247027 C91.0053676,36.188027 90.5407676,36.6534459 89.9028297,36.9182297 C89.2643459,37.1857432 88.3277757,37.3170432 87.0912081,37.3170432 L74.2186216,37.3170432 L74.2186216,43.9636622 L69.4399568,43.9636622 L69.4399568,23.3719459 L69.4399568,23.3719459 Z" id="Fill-33" fill="#4D4E4C"></path>
            <path d="M111.871968,32.9612135 C112.595346,32.9612135 113.110446,32.8438351 113.416722,32.6068946 C113.72327,32.3713189 113.876954,31.9886108 113.876954,31.4549486 L113.876954,29.4480514 C113.876954,28.9146622 113.72327,28.5355027 113.416722,28.3089351 C113.110446,28.0823676 112.595346,27.9701757 111.871968,27.9701757 L101.185349,27.9701757 L101.185349,32.9612135 L111.871968,32.9612135 Z M96.4064108,23.3719459 L114.05657,23.3719459 C114.841914,23.3719459 115.454192,23.4123459 115.895862,23.4931459 C116.338078,23.5725811 116.755181,23.7300865 117.147716,23.9621135 C117.731332,24.2918649 118.129873,24.7430892 118.345522,25.3171514 C118.561716,25.8898486 118.670905,26.7535351 118.670905,27.9101216 L118.670905,32.8121703 C118.670905,33.5139838 118.642789,34.0550162 118.58683,34.4309 C118.531962,34.8084216 118.423865,35.1736595 118.263357,35.5247027 C117.971822,36.188027 117.506949,36.6534459 116.869284,36.9182297 C116.230527,37.1857432 115.293411,37.3170432 114.05657,37.3170432 L101.185349,37.3170432 L101.185349,43.9636622 L96.4064108,43.9636622 L96.4064108,23.3719459 L96.4064108,23.3719459 Z" id="Fill-34" fill="#4D4E4C"></path>
            <path d="M127.744254,39.3957324 L142.667414,39.3957324 L142.667414,27.9701757 L127.744254,27.9701757 L127.744254,39.3957324 Z M147.444441,39.4257595 C147.444441,40.2697919 147.36637,40.9808865 147.212141,41.5584973 C147.055181,42.1380189 146.799678,42.6050757 146.442903,42.9613054 C146.086673,43.3175351 145.618524,43.5738568 145.040641,43.7286324 C144.463303,43.8850459 143.752481,43.9636622 142.908995,43.9636622 L127.473192,43.9636622 C126.629159,43.9636622 125.923524,43.8850459 125.355468,43.7286324 C124.786865,43.5738568 124.325541,43.3175351 123.968765,42.9613054 C123.61117,42.6050757 123.354576,42.1380189 123.198435,41.5584973 C123.043932,40.9808865 122.965589,40.2697919 122.965589,39.4257595 L122.965589,27.9101216 C122.965589,26.2422568 123.299981,25.0695649 123.968765,24.3904081 C124.636457,23.7107054 125.805327,23.3719459 127.473192,23.3719459 L142.908995,23.3719459 C143.752481,23.3719459 144.463303,23.4562946 145.040641,23.6214432 C145.618524,23.7882297 146.086673,24.0445514 146.442903,24.3904081 C146.799678,24.7359919 147.055181,25.2030486 147.212141,25.7929432 C147.36637,26.3795622 147.444441,27.0851973 147.444441,27.9101216 L147.444441,39.4257595 L147.444441,39.4257595 Z" id="Fill-35" fill="#008AC4"></path>
            <polyline id="Fill-36" fill="#008AC4" points="164.597789 43.9636622 159.790735 43.9636622 159.790735 27.9701757 150.338773 27.9701757 150.338773 23.3719459 174.049751 23.3719459 174.049751 27.9701757 164.597789 27.9701757 164.597789 43.9636622"></polyline>
            <g id="Group-40">
                <mask id="mask-8" fill="white">
                    <use xlink:href="#path-7"></use>
                </mask>
                <g id="Clip-38"></g>
                <path d="M14.3144297,25.7227892 C12.5676757,26.0053162 10.8525865,26.3618189 9.16888919,26.7852 C7.71967568,31.5248297 6.84588919,36.4850216 6.61440811,41.5688703 C13.1996081,37.5034838 20.6807054,34.6394514 28.8002865,33.3455595 C30.0818946,33.1402838 31.3583162,32.9841432 32.632827,32.8632162 C33.5055216,30.5191973 34.6105162,28.2963784 36.0089568,26.2387081 C29.0601568,24.7924973 21.7384757,24.5514622 14.3144297,25.7227892" id="Fill-37" fill="#008AC4" mask="url(#mask-8)"></path>
                <path d="M8.9415027,0.132391892 C4.53926757,6.83578919 1.46067838,14.4233459 0,22.4801432 C2.59215135,21.6972568 5.26619459,21.0756973 8.01530541,20.6367568 C18.5018351,18.9634324 28.7882757,20.1066432 38.1062081,23.4986054 C40.2182,21.0423946 42.7260027,18.9178459 45.5561865,17.2325108 C35.8176027,7.65552703 22.9365541,1.45822162 8.9415027,0.132391892" id="Fill-39" fill="#008AC4" mask="url(#mask-8)"></path>
            </g>
            <path d="M16.9647243,41.5129108 C16.3035838,44.8964108 16.2151405,48.4497 16.7900216,52.0523973 C17.1044865,54.0235351 17.604573,55.9212432 18.2700811,57.7299622 C20.8352081,51.8995324 25.2136946,46.9587216 30.8036351,43.7267216 C30.7525892,41.0969 31.0457622,38.5164865 31.6495784,36.0406216 C26.431973,37.2449784 21.512727,39.1006486 16.9647243,41.5129108" id="Fill-41" fill="#008AC4"></path>
        </g>
    </g>
</svg>